#tb 0: 1/25
#media_type 0: video
#codec_id 0: rawvideo
#dimensions 0: 176x144
#sar 0: 0/1
0,          0,          0,        1,    38016, 0xb3883478
0,          1,          1,        1,    38016, 0x99e1fe60
0,          2,          2,        1,    38016, 0x65eace24
0,          3,          3,        1,    38016, 0xb2b0a513
0,          4,          4,        1,    38016, 0x8af47c64
0,          5,          5,        1,    38016, 0xa56670c6
0,          6,          6,        1,    38016, 0x11d45ac9
0,          7,          7,        1,    38016, 0xcd4e4f18
0,          8,          8,        1,    38016, 0x399934b2
0,          9,          9,        1,    38016, 0xedd23f7b
0,         10,         10,        1,    38016, 0x38c350b9
0,         11,         11,        1,    38016, 0xdd937244
0,         12,         12,        1,    38016, 0x39c67be6
0,         13,         13,        1,    38016, 0xabb7a34d
0,         14,         14,        1,    38016, 0x535d971f
0,         15,         15,        1,    38016, 0xd41c9cf7
0,         16,         16,        1,    38016, 0xfddda183
